<?xml version="1.0" encoding="UTF-8"?> <svg xmlns="http://www.w3.org/2000/svg" id="Layer_1" viewBox="0 0 262.2 67"> <style>.st0{fill:#fff}</style> <path class="st0" d="M9.2 39.6h21.1V35H9.2v4.6zM56 14V9.4c-11.6 0-21 9.4-21 21h4.6C39.6 21.3 47 14 56 14zm12.9 12.3c-1.6-1.6-4-2.1-6-1.3l-6.6 2.6c-1.5.6-2.6 1.7-3.2 3.2l-2.6 6.6c-.8 2.1-.3 4.5 1.3 6l12.3 12.3c1.6 1.6 3.6 2.3 5.6 2.3 2 0 4.1-.8 5.6-2.3l5.9-5.8c1.5-1.5 2.3-3.5 2.3-5.6 0-2.1-.8-4.1-2.3-5.6L68.9 26.3zm9 20.3L72 52.5a3.32 3.32 0 0 1-4.7 0L55 40.2c-.3-.3-.4-.7-.2-1.1l1.8-4.6 6.1 6.1c.5.5 1 .7 1.6.7.6 0 1.2-.2 1.6-.7.9-.9.9-2.4 0-3.3l-6.1-6.1 4.6-1.8c.1 0 .2-.1.4-.1.3 0 .5.1.7.3l12.3 12.3c.6.6 1 1.5 1 2.4.1.8-.2 1.7-.9 2.3zM56 23.3v-4.6c-6.4 0-11.6 5.2-11.6 11.6H49c0-3.8 3.1-7 7-7zM110.6 41c1.1 0 2.1-.2 3-.6.8-.4 1.5-.9 2.1-1.6.5-.7 1-1.5 1.2-2.5.3-1 .4-2.1.4-3.3 0-2.4-.6-4.2-1.7-5.4-1.1-1.3-2.8-1.9-4.9-1.9-.7 0-1.5.1-2.2.2-.7.1-1.4.4-2.1.7-.2.1-.3.2-.3.3 0 .1 0 .2.1.5l.6 1.5c.1.2.1.3.2.4h.4c.5-.2 1-.3 1.4-.4.5-.1 1-.1 1.5-.1 1 0 1.8.3 2.3.8.6.5.9 1.3 1 2.4h-5c-.2 0-.3 0-.3.1-.1.1-.1.2-.1.3V34c0 .2 0 .3.1.3s.2.1.3.1h5c-.1.6-.2 1.1-.3 1.5-.2.5-.4.9-.7 1.2-.3.3-.6.6-1.1.7-.4.2-.9.3-1.6.3-.7 0-1.3-.1-1.8-.2-.5-.2-1-.3-1.5-.5-.2-.1-.3-.1-.4-.1-.1 0-.2.2-.2.3l-.7 1.5c-.1.2-.1.3-.1.4 0 .1.1.2.2.3.8.5 1.6.8 2.4.9 1.1.3 2 .3 2.8.3zm43.3-25.9h2.5c.1 0 .2 0 .3-.1.1 0 .1-.1.1-.3V8.4h1.7c.4 0 .7 0 1 .1.3 0 .5.1.7.3.2.1.4.3.5.5.1.2.3.5.4.9l1.3 4.6c0 .1.1.2.2.3h2.7c.2 0 .3-.1.3-.2v-.3l-1.3-4.9-.3-.9c-.1-.3-.2-.5-.4-.7l-.6-.6c-.2-.2-.5-.3-.9-.4.9-.6 1.5-1.4 1.8-2.7l1-3.8V.3c0-.1-.1-.2-.3-.2H162c-.1 0-.2.1-.2.3l-1 3.6c-.1.4-.3.8-.5 1-.2.3-.4.4-.6.6-.2.1-.5.2-.7.2-.2 0-.5.1-.7.1h-1.7V.6.3c-.1 0-.2-.1-.3-.1h-2.5c-.1 0-.2 0-.3.1-.1 0-.1.1-.1.3v14.2c0 .2 0 .3.1.3h.4zM141 13.3c.5.7 1.2 1.2 2.1 1.5.8.3 1.8.5 3 .5.8 0 1.7-.1 2.5-.2.8-.2 1.6-.5 2.4-.9.1-.1.2-.2.2-.3 0-.1 0-.2-.1-.4l-.7-1.5c-.1-.2-.1-.3-.2-.3s-.2 0-.4.1c-.5.2-.9.3-1.5.5-.5.2-1.1.2-1.8.2s-1.3-.1-1.7-.3c-.5-.2-.8-.5-1.1-1-.3-.4-.5-.9-.6-1.5-.1-.6-.2-1.2-.2-1.9s.1-1.3.2-1.9c.2-.6.4-1.1.7-1.5.3-.4.7-.8 1.1-1 .4-.2 1-.4 1.5-.4s1 0 1.5.1c.4.1.9.2 1.4.4.2.1.3.1.4 0 .1 0 .2-.2.2-.4l.7-1.5c.1-.2.1-.4.1-.5 0-.1-.1-.2-.3-.3-.7-.4-1.3-.6-2-.7-.7 0-1.4-.1-2.1-.1-1 0-2 .2-2.8.6-.8.4-1.6.9-2.2 1.6-.6.7-1.1 1.5-1.4 2.4-.3 1-.5 2-.5 3.2 0 1.2.1 2.2.4 3.2.3.9.7 1.7 1.2 2.3zm-5.5 15.1c-.1.5-.2 1-.2 1.5V37c0 .5.1 1 .2 1.4.1.5.3.9.6 1.3s.7.7 1.2.9c.5.2 1.2.3 1.9.3h6.3c.2 0 .3 0 .3-.1.1-.1.1-.2.1-.4v-1.8c0-.2 0-.4-.1-.4 0-.1-.2-.1-.4-.1h-5.6c-.5 0-.8-.1-1-.3-.2-.2-.4-.5-.4-1v-2.4h6.1c.2 0 .3 0 .3-.1s.1-.2.1-.4v-1.7c0-.2 0-.3-.1-.4-.1-.1-.2-.1-.3-.1h-6.1V30c0-.4.1-.7.3-.9.2-.3.6-.4 1.1-.4h5.4c.2 0 .3 0 .3-.1.1-.1.1-.2.1-.4v-1.8c0-.2 0-.3-.1-.4 0-.1-.2-.1-.3-.1h-6.1c-.7 0-1.3.1-1.8.3-.5.2-.9.5-1.2.9-.2.4-.5.8-.6 1.3zM9.2 48.8h21.1v-4.6H9.2v4.6zm164.3-33.4c1.1 0 2.1-.2 3-.5.8-.3 1.5-.9 2.1-1.5.6-.7 1-1.5 1.2-2.4.3-1 .4-2 .4-3.3 0-1.2-.1-2.2-.4-3.2-.3-.9-.7-1.7-1.2-2.4S177.4.9 176.5.6c-.8-.4-1.8-.5-2.9-.5-1 0-1.9.2-2.7.5-.8.4-1.5.9-2.1 1.5-.6.7-1 1.5-1.3 2.4-.3 1-.5 2-.5 3.2 0 2.4.5 4.3 1.6 5.7 1.1 1.3 2.7 2 4.9 2zm-2.9-9.6c.1-.6.3-1.1.6-1.5.3-.4.6-.8 1-1 .4-.2.9-.4 1.4-.4.7 0 1.2.1 1.6.4.4.3.7.6 1 1.1.2.4.4 1 .5 1.5.1.6.1 1.2.1 1.8 0 .6-.1 1.2-.2 1.8-.1.6-.3 1.1-.5 1.5-.2.4-.6.8-1 1-.4.3-.9.4-1.5.4s-1.1-.1-1.6-.3c-.4-.2-.7-.6-1-1-.2-.4-.4-.9-.5-1.5-.1-.6-.2-1.3-.2-2 .1-.7.2-1.3.3-1.8zm-166-.7c12 2.2 21.1 12.7 21.1 25.2H30.3C30.3 16.2 41.8 4.7 56 4.7V.1C43.4.1 32.6 7.8 28 18.8 23.4 7.8 12.6.1 0 .1v58h30.3v-4.6H4.5V5.1zm102.4 10h2.2c.2 0 .3 0 .4-.1.1 0 .1-.2.1-.4V6.8h.1l1.3 2.9 1.3 2.8c.2.4.3.6.5.7.1.1.4.2.7.2h1.2c.3 0 .6-.1.7-.2.2-.1.3-.4.5-.7l1.8-3.9.9-2h.1v8.1c0 .2 0 .3.1.4.1 0 .2.1.4.1h2.1c.2 0 .3 0 .4-.1.1 0 .1-.2.1-.4V1.6c0-.5-.1-.9-.3-1.1-.2-.2-.6-.3-1-.3h-1c-.5 0-.8.1-1 .2-.2.2-.4.4-.6.8l-2.2 4.9-1.4 3.3h-.1l-1.3-3-2.3-5.2c-.2-.4-.4-.6-.5-.8-.2-.1-.5-.2-.9-.2h-1.2c-.5 0-.8.1-1.1.3-.2.2-.3.6-.3 1.1v13c0 .2 0 .3.1.4-.1.1.1.1.2.1zm23.6.3c1.1 0 2.1-.2 3-.5.8-.3 1.5-.9 2.1-1.5.6-.7 1-1.5 1.2-2.4.3-1 .4-2 .4-3.3 0-1.2-.1-2.2-.4-3.2-.3-.9-.7-1.7-1.2-2.4S134.5.9 133.6.6c-.8-.4-1.8-.5-2.9-.5-1 0-1.9.2-2.7.5-.8.4-1.5.9-2.1 1.5-.6.7-1 1.5-1.3 2.4-.3 1-.5 2-.5 3.2 0 2.4.5 4.3 1.6 5.7s2.7 2 4.9 2zm-2.9-9.6c.1-.6.3-1.1.6-1.5.3-.4.6-.8 1-1 .4-.2.9-.4 1.4-.4.7 0 1.2.1 1.6.4.4.3.7.6 1 1.1.2.4.4 1 .5 1.5.1.6.1 1.2.1 1.8 0 .6-.1 1.2-.2 1.8-.1.6-.3 1.1-.5 1.5s-.6.8-1 1c-.4.3-.9.4-1.5.4s-1.1-.1-1.6-.3c-.4-.2-.7-.6-1-1-.2-.4-.4-.9-.5-1.5-.1-.6-.2-1.3-.2-2 .1-.7.2-1.3.3-1.8zm-6.3 24.8c-.1 1.4-.2 2.5-.3 3.5-.1.9-.2 1.7-.4 2.3-.2.6-.5 1.1-.8 1.5-.3.4-.8.7-1.3 1-.2.1-.2.2-.3.3v.4l.7 1.6c.1.2.2.3.3.3h.4c1-.3 1.9-.8 2.5-1.4.6-.6 1-1.4 1.3-2.3.3-.9.5-2 .6-3.2.1-1.2.2-2.6.3-4.2l.1-1.5h4.1v11.7c0 .2 0 .3.1.3.1.1.2.1.3.1h2.4c.2 0 .3 0 .4-.1.1 0 .1-.2.1-.3V27.3c0-.5-.1-.8-.3-1.1-.2-.2-.6-.4-1.1-.4h-7.6c-.5 0-.9.1-1 .3-.2.2-.3.6-.3 1.1l-.2 3.4zm35 4.4c.1.2.3.5.4.9l1.3 4.6c0 .1.1.2.2.3h2.7c.2 0 .3-.1.3-.2v-.3l-1.3-4.9-.3-.9c-.1-.3-.2-.5-.4-.7l-.6-.6c-.2-.2-.5-.3-.9-.4v-.1c.9-.6 1.5-1.4 1.8-2.7l1-3.8v-.3c0-.1-.1-.2-.3-.2h-2.6c-.1 0-.2.1-.2.3l-1 3.6c-.1.4-.3.8-.5 1-.2.3-.4.4-.6.6-.2.1-.5.2-.7.2-.2 0-.5.1-.7.1h-1.7v-5.4-.3c-.1 0-.2-.1-.3-.1h-2.5c-.1 0-.2 0-.3.1-.1 0-.1.1-.1.3v14.2c0 .2 0 .3.1.3s.2.1.3.1h2.5c.1 0 .2 0 .3-.1.1 0 .1-.1.1-.3V34h1.7c.4 0 .7 0 1 .1.3.1.5.1.7.3.3.2.4.4.6.6zm66.8-20v-.3l-1.3-4.9-.3-.9c-.1-.3-.2-.5-.4-.7l-.6-.6c-.2-.2-.5-.3-.9-.4v-.1c.9-.6 1.5-1.4 1.8-2.7l1-3.8V.3c0-.1-.1-.2-.3-.2h-2.6c-.1 0-.2.1-.2.3l-1 3.6c-.1.4-.3.8-.5 1-.2.3-.4.4-.6.6-.2.1-.5.2-.7.2-.1.2-.3.2-.6.2h-1.7V.6.3c-.1 0-.2-.1-.3-.1h-2.5c-.1 0-.2 0-.3.1-.1 0-.1.1-.1.3v14.2c0 .2 0 .3.1.3s.2.1.3.1h2.5c.1 0 .2 0 .3-.1.1 0 .1-.1.1-.3V8.5h1.7c.4 0 .7 0 1 .1.3 0 .5.1.7.3.2.1.4.3.5.5.1.2.3.5.4.9l1.3 4.6c0 .1.1.2.2.3h2.7c.2-.1.3-.1.3-.2zm9.9 10.9h-2.2c-.2 0-.3 0-.4.1-.1.1-.1.2-.1.4v5.3h-5.8v-5.3c0-.2 0-.3-.1-.4-.1-.1-.2-.1-.4-.1h-2.3c-.2 0-.3 0-.4.1-.1.1-.1.2-.1.4v14c0 .2 0 .3.1.4.1.1.2.1.4.1h2.3c.2 0 .4 0 .4-.1.1-.1.1-.2.1-.4v-6h5.8v6c0 .2 0 .3.1.4.1.1.2.1.4.1h2.2c.2 0 .4 0 .4-.1.1-.1.1-.2.1-.4v-14c0-.2 0-.3-.1-.4-.1-.1-.2-.1-.4-.1zm-15.5 0h-2.2c-.2 0-.3 0-.4.1-.1.1-.1.2-.1.4v5.3h-5.8v-5.3c0-.2 0-.3-.1-.4-.1-.1-.2-.1-.4-.1h-2.3c-.2 0-.3 0-.4.1-.1.1-.1.2-.1.4v14c0 .2 0 .3.1.4.1.1.2.1.4.1h2.3c.2 0 .4 0 .4-.1.1-.1.1-.2.1-.4v-6h5.8v6c0 .2 0 .3.1.4.1.1.2.1.4.1h2.2c.2 0 .4 0 .4-.1.1-.1.1-.2.1-.4v-14c0-.2 0-.3-.1-.4-.1-.1-.2-.1-.4-.1zm20.7-11v-.3l-4.4-13.3c-.1-.3-.2-.5-.3-.6-.1-.2-.2-.3-.3-.4-.1-.1-.3-.1-.4-.2H231c-.2 0-.4 0-.6.1-.2 0-.3.1-.4.2-.1.1-.2.2-.3.4-.1.1-.2.3-.2.6l-4.4 13.3v.3c0 .1.1.1.3.1h2.5c.2 0 .3 0 .4-.1.1-.1.1-.2.2-.3l.8-2.7h4.9l.8 2.8c0 .2.1.3.2.3s.2.1.4.1h2.5c0-.2.1-.2.2-.3zm-8.4-5.6l.8-2.7.8-3.1h.1l.8 3.1.8 2.7h-3.3zm21.7 5.7c.1 0 .1-.1.1-.3V1.5c0-.4-.1-.7-.3-1-.2-.2-.5-.3-1-.3h-5.2c-.8 0-1.5.1-2.1.3-.6.2-1.1.5-1.5.9-.4.4-.7.9-.9 1.4-.2.5-.3 1.1-.3 1.8 0 .8.2 1.5.6 2.2.4.7 1 1.1 1.8 1.4-.6.2-1.1.5-1.3.8-.3.4-.5.8-.6 1.4l-1.1 4.1v.3c0 .2.1.2.3.2h2.3c.2 0 .3 0 .5-.1.2 0 .3-.2.4-.4 0-.2.1-.5.2-.8.1-.3.2-.7.3-1.1.1-.4.2-.7.3-1.1.1-.3.2-.6.2-.8.2-.7.5-1.2.8-1.4.4-.3.9-.4 1.5-.4h2v5.7c0 .2 0 .3.1.3s.2.1.4.1h2.4.1zm-3.2-8.6h-2.8c-.6 0-1.1-.2-1.4-.5-.3-.3-.5-.7-.5-1.2 0-.2 0-.4.1-.6l.3-.6c.1-.2.3-.3.6-.4.2-.1.5-.2.9-.2h2.9v3.5zM262 26.2c-.2-.2-.5-.3-1-.3h-5.2c-.8 0-1.5.1-2.1.3-.6.2-1.1.5-1.5.9-.4.4-.7.9-.9 1.4-.2.5-.3 1.1-.3 1.8 0 .8.2 1.5.6 2.2.4.7 1 1.1 1.8 1.4-.6.2-1.1.5-1.3.8-.3.4-.5.8-.6 1.4l-1.1 4.1v.3c0 .2.1.2.3.2h2.3c.2 0 .3 0 .5-.1.2 0 .3-.2.4-.4 0-.2.1-.5.2-.8.1-.3.2-.7.3-1.1.1-.4.2-.7.3-1.1.1-.3.2-.6.2-.8.2-.7.5-1.2.8-1.4.4-.3.9-.4 1.5-.4h2v5.7c0 .2 0 .3.1.3s.2.1.4.1h2.4c.2 0 .3 0 .3-.1.1 0 .1-.1.1-.3V27.2c-.3-.4-.4-.7-.5-1zm-3.1 6h-2.8c-.6 0-1.1-.2-1.4-.5-.3-.3-.5-.7-.5-1.2 0-.2 0-.4.1-.6l.3-.6c.1-.2.3-.3.6-.4.2-.1.5-.2.9-.2h2.9v3.5zM124.4 51.6H122c-.2 0-.3 0-.4.1-.1.1-.1.2-.1.3v11.7h-4.3V52c0-.2 0-.3-.1-.3-.1-.1-.2-.1-.4-.1h-2.3c-.3 0-.4.1-.4.4v11.7h-4.3V52c0-.2 0-.3-.1-.3-.1-.1-.2-.1-.4-.1H107c-.3 0-.4.1-.4.4v13.1c0 .5.1.8.3 1.1.2.2.5.4 1 .4h15.7c.5 0 .8-.1 1-.4.2-.2.3-.6.3-1.1V52c0-.3-.2-.4-.5-.4zm84-37.4c.1-.1.2-.2.2-.3 0-.1 0-.2-.1-.4l-.7-1.5c-.1-.2-.1-.3-.2-.3s-.2 0-.4.1c-.5.2-.9.3-1.5.5-.5.2-1.1.2-1.8.2s-1.3-.1-1.7-.3c-.5-.2-.8-.5-1.1-1-.3-.4-.5-.9-.6-1.5-.1-.6-.2-1.2-.2-1.9s.1-1.3.2-1.9c.2-.6.4-1.1.7-1.5.3-.4.7-.8 1.1-1 .4-.2 1-.4 1.5-.4s1 0 1.5.1c.4.1.9.2 1.4.4.2.1.3.1.4 0 .1 0 .2-.2.2-.4l.7-1.5c.1-.2.1-.4.1-.5 0-.1-.1-.2-.3-.3-.7-.4-1.3-.6-2-.7-.8 0-1.5-.1-2.2-.1-1 0-2 .2-2.8.6-.8.4-1.6.9-2.2 1.6-.6.7-1.1 1.5-1.4 2.4-.3 1-.5 2-.5 3.2 0 1.2.1 2.2.4 3.2.3.9.7 1.7 1.2 2.4s1.2 1.2 2.1 1.5c.8.3 1.8.5 3 .5.8 0 1.7-.1 2.5-.2.9-.2 1.7-.6 2.5-1zm35.7 12.2c-.1-.2-.2-.3-.3-.4-.1-.1-.3-.1-.4-.2h-1.9c-.2 0-.4 0-.6.1-.2 0-.3.1-.4.2-.1.1-.2.2-.3.4-.1.1-.2.3-.2.6l-4.4 13.3v.3c0 .1.1.1.3.1h2.5c.2 0 .3 0 .4-.1.1-.1.1-.2.2-.3l.8-2.7h4.9l.8 2.8c0 .2.1.3.2.3s.2.1.4.1h2.5c.2 0 .2-.1.3-.1v-.3L244.4 27l-.3-.6zm-3.6 8.7l.8-2.7.8-3.1h.1l.8 3.1.8 2.7h-3.3zm-66.2-6.8v-1.9c0-.2 0-.3-.1-.4-.1-.1-.2-.1-.3-.1H163c-.2 0-.3 0-.3.1-.1.1-.1.2-.1.4v1.9c0 .3.1.4.4.4h3.8v11.7c0 .2 0 .3.1.4.1.1.2.1.4.1h2.3c.2 0 .4 0 .4-.1.1-.1.1-.2.1-.4V28.7h3.8c.3 0 .4-.2.4-.4zm-21.2 25.1c-.5-.7-1.2-1.2-2.1-1.5-.8-.4-1.8-.5-2.9-.5-1 0-1.9.2-2.7.5-.8.4-1.5.9-2.1 1.5-.6.7-1 1.5-1.3 2.4-.3 1-.5 2-.5 3.2 0 2.4.5 4.3 1.6 5.7 1.1 1.3 2.7 2 4.9 2 1.1 0 2.1-.2 3-.5.8-.3 1.5-.9 2.1-1.5.6-.7 1-1.5 1.2-2.4.3-1 .4-2 .4-3.3 0-1.2-.1-2.2-.4-3.2-.3-.9-.7-1.7-1.2-2.4zm-1.9 7.5c-.1.6-.3 1.1-.5 1.5-.2.4-.6.8-1 1-.4.3-.9.4-1.5.4s-1.1-.1-1.6-.3c-.4-.2-.7-.6-1-1-.2-.4-.4-.9-.5-1.5-.1-.6-.2-1.3-.2-2 0-.6.1-1.2.2-1.8.1-.6.3-1.1.6-1.5.3-.4.6-.8 1-1 .4-.2.9-.4 1.4-.4.7 0 1.2.1 1.6.4.4.3.7.6 1 1.1.2.4.4 1 .5 1.5.1.6.1 1.2.1 1.8.1.6 0 1.2-.1 1.8zm16.4-9.3H160c-.5 0-.9.1-1 .3-.2.2-.3.6-.3 1.1l-.2 3.2c-.1 1.4-.2 2.5-.3 3.5-.1.9-.2 1.7-.4 2.3-.2.6-.5 1.1-.8 1.5-.3.4-.8.7-1.3 1-.2.1-.2.2-.3.3v.4l.7 1.6c.1.2.2.3.3.3h.4c1-.3 1.9-.8 2.5-1.4.6-.6 1-1.4 1.3-2.3.3-.9.5-2 .6-3.2.1-1.2.2-2.6.3-4.2l.1-1.5h4.1v11.7c0 .2 0 .3.1.3s.2.1.3.1h2.4c.2 0 .3 0 .4-.1 0-.1.1-.2.1-.3V53c0-.5-.1-.8-.3-1.1-.2-.2-.6-.3-1.1-.3zm-28.8 9.5l-.3-.9c-.1-.3-.2-.5-.4-.7l-.6-.6c-.2-.2-.5-.3-.9-.4v-.1c.9-.6 1.5-1.4 1.8-2.7l1-3.8v-.3c0-.1-.1-.2-.3-.2h-2.6c-.1 0-.2.1-.2.3l-1 3.6c-.1.4-.3.8-.5 1-.2.3-.4.4-.6.6-.2.1-.5.2-.7.2-.2 0-.5.1-.7.1h-1.7v-5.4-.3c-.1 0-.2-.1-.3-.1h-2.5c-.1 0-.2 0-.3.1-.1 0-.1.1-.1.3V66c0 .2 0 .3.1.3s.2.1.3.1h2.5c.1 0 .2 0 .3-.1.1 0 .1-.1.1-.3v-6.3h1.7c.4 0 .7 0 1 .1.3 0 .5.1.7.3.2.1.4.3.5.5.1.2.3.5.4.9l1.3 4.6c0 .1.1.2.2.3h2.7c.2 0 .3-.1.3-.2v-.3l-1.2-4.8zm54.4-47.2c.5-.4.8-.9 1.1-1.4.3-.6.4-1.2.4-1.8 0-.4 0-.7-.1-1.1-.1-.4-.2-.7-.4-1-.2-.3-.4-.6-.7-.9-.3-.3-.6-.5-1-.6v-.3c.5-.3.9-.7 1.2-1.2.3-.5.5-1.1.5-1.7 0-.7-.1-1.2-.4-1.7-.2-.5-.6-.9-1-1.2-.4-.3-.9-.5-1.5-.7-.6-.1-1.2-.2-1.8-.2h-5.2c-.5 0-.9.1-1 .3-.2.2-.3.5-.3 1v12.3c0 .5.1.8.3 1 .2.2.5.3 1 .3h5.3c.7 0 1.4-.1 2-.3.6-.1 1.1-.4 1.6-.8zm-7-10.9h3c.5 0 .8.1 1.1.4.3.2.4.6.4 1 0 .3-.1.5-.1.7-.1.2-.2.3-.4.4-.2.1-.3.2-.5.2s-.4.1-.5.1h-2.9V3zm5.1 8l-.3.6c-.2.2-.4.3-.6.5-.3.1-.6.2-1 .2h-3.1V8.5h3.1c.7 0 1.2.2 1.5.5.3.4.5.8.5 1.4-.1.2-.1.4-.1.6zm9.9 16.7c-.5-.7-1.2-1.2-2.1-1.5-.8-.4-1.8-.5-2.9-.5-1 0-1.9.2-2.7.5-.8.4-1.5.9-2.1 1.5-.6.7-1 1.5-1.3 2.4-.3 1-.5 2-.5 3.2 0 2.4.5 4.3 1.6 5.7 1.1 1.3 2.7 2 4.9 2 1.1 0 2.1-.2 3-.5.8-.3 1.5-.9 2.1-1.5.6-.7 1-1.5 1.2-2.4.3-1 .4-2 .4-3.3 0-1.2-.1-2.2-.4-3.2-.2-.9-.6-1.7-1.2-2.4zm-1.9 7.5c-.1.6-.3 1.1-.5 1.5-.2.4-.6.8-1 1-.4.3-.9.4-1.5.4s-1.1-.1-1.6-.3c-.4-.2-.7-.6-1-1-.2-.4-.4-.9-.5-1.5-.1-.6-.2-1.3-.2-2 0-.6.1-1.2.2-1.8.1-.6.3-1.1.6-1.5.3-.4.6-.8 1-1 .4-.2.9-.4 1.4-.4.7 0 1.2.1 1.6.4.4.3.7.6 1 1.1.2.4.4 1 .5 1.5.1.6.1 1.2.1 1.8.1.6 0 1.2-.1 1.8zm-19.7 16.9c-.1-.2-.2-.3-.3-.4-.1-.1-.3-.1-.4-.2H177c-.2 0-.4 0-.6.1-.2 0-.3.1-.4.2-.1.1-.2.2-.3.4-.1.1-.2.3-.2.6l-4.4 13.3v.3c0 .1.1.1.3.1h2.5c.2 0 .3 0 .4-.1.1-.1.1-.2.2-.3l.8-2.7h4.9l.8 2.8c0 .2.1.3.2.3s.2.1.4.1h2.5c.2 0 .2 0 .3-.1v-.3L180 52.9l-.4-.8zm-3.7 8.7l.8-2.7.8-3.1h.1l.8 3.1.8 2.7h-3.3zm10.5-33.6c-.4-.4-1-.7-1.6-1-.6-.2-1.3-.4-2.1-.4h-5.2c-.5 0-.9.1-1 .4-.2.2-.3.5-.3.9v13.2c0 .2 0 .3.1.4.1.1.2.1.4.1h2.2c.2 0 .4 0 .4-.1.1 0 .1-.2.1-.4v-5h2.8c1.2 0 2.1-.2 2.9-.6.7-.4 1.3-.8 1.6-1.3.4-.5.6-1 .7-1.6.1-.5.2-1 .2-1.4 0-.7-.1-1.3-.3-1.9-.1-.4-.5-.9-.9-1.3zm-2.5 5c-.3.4-.9.6-1.6.6h-2.8v-4h2.8c.4 0 .8.1 1.1.2.3.1.5.3.7.5.2.2.3.4.3.7.1.2.1.4.1.6-.1.5-.3 1-.6 1.4z"></path> </svg> 