<?xml version="1.0" encoding="UTF-8"?> <svg xmlns="http://www.w3.org/2000/svg" id="Layer_1" data-name="Layer 1" viewBox="0 0 460.54 461.09"> <defs> <style>.cls-1{fill:#7b3ef8;}</style> </defs> <title>correct_fio</title> <path class="cls-1" d="M160.74,242.51a16.28,16.28,0,0,0-23,23l75,75a15.9,15.9,0,0,0,11.51,4.76H225a18.14,18.14,0,0,0,11.91-6l187.73-225a16.34,16.34,0,0,0-25-21L223.06,304.82l-62.31-62.31h0Z" transform="translate(-25.6 -25.5)"></path> <path class="cls-1" d="M377.45,60.73C286.16,3.57,169.08,17.07,92.87,93.27c-89.7,89.7-89.7,236.16,0,325.85a230,230,0,0,0,325.46,0c76.6-76.6,89.7-194.08,32.15-285.37a16.13,16.13,0,0,0-27.39,17.07c49.61,78.59,38.1,179.4-27.78,245.28-77,77-202.82,77-279.81,0s-77-202.82,0-279.81c65.89-65.49,166.3-77,244.89-28.18a16.13,16.13,0,1,0,17.07-27.39h0Z" transform="translate(-25.6 -25.5)"></path> </svg> 