<?xml version="1.0" encoding="UTF-8"?> <svg xmlns="http://www.w3.org/2000/svg" xmlns:xlink="http://www.w3.org/1999/xlink" id="Слой_1" data-name="Слой 1" viewBox="0 0 107.44 22.88"> <defs> <style>.cls-1,.cls-3{fill:#fff;}.cls-2{clip-path:url(#clip-path);}.cls-3{opacity:0.07;}</style> <clipPath id="clip-path" transform="translate(-0.55 -0.68)"> <polygon class="cls-1" points="7.6 12.34 14.65 23.57 0.55 23.57 7.6 12.34"></polygon> </clipPath> </defs> <title>ЛОГО ГБПОУ 1-й мок</title> <path class="cls-1" d="M42.93,0.8A0.17,0.17,0,0,1,43,.93V1.39a0.18,0.18,0,0,1-.18.18H40.68V5.16a0.18,0.18,0,0,1-.18.18H40a0.18,0.18,0,0,1-.18-0.18V0.93A0.18,0.18,0,0,1,40,.75H42.8A0.17,0.17,0,0,1,42.93.8Z" transform="translate(-0.55 -0.68)"></path> <path class="cls-1" d="M55.46,5.29a0.17,0.17,0,0,1-.05-0.12V0.93A0.18,0.18,0,0,1,55.58.75h2.87a0.18,0.18,0,0,1,.18.18V1.39a0.18,0.18,0,0,1-.18.18H56.29v1h1.24a1.48,1.48,0,0,1,.73.17,1.22,1.22,0,0,1,.49.49,1.48,1.48,0,0,1,.17.73,1.52,1.52,0,0,1-.16.7,1.22,1.22,0,0,1-.48.5,1.46,1.46,0,0,1-.75.18H55.58A0.17,0.17,0,0,1,55.46,5.29Zm1.93-.77a0.65,0.65,0,0,0,.48-0.16,0.6,0.6,0,0,0,0-.82,0.65,0.65,0,0,0-.48-0.16h-1.1V4.52h1.1Z" transform="translate(-0.55 -0.68)"></path> <path class="cls-1" d="M75.17,0.8a0.17,0.17,0,0,1,.05.13V5.16a0.18,0.18,0,0,1-.18.18H74.52a0.17,0.17,0,0,1-.12-0.05,0.17,0.17,0,0,1-.05-0.12V1.57h-2V5.16a0.18,0.18,0,0,1-.18.18H71.65a0.18,0.18,0,0,1-.18-0.18V0.93A0.18,0.18,0,0,1,71.65.75H75A0.17,0.17,0,0,1,75.17.8Z" transform="translate(-0.55 -0.68)"></path> <path class="cls-1" d="M91.23,1.18a1.89,1.89,0,0,1,.52,1.29c0,0.2,0,.38,0,0.52s0,0.41,0,.65a1.88,1.88,0,0,1-.52,1.28,2.25,2.25,0,0,1-2.81,0,1.89,1.89,0,0,1-.52-1.28q0-.35,0-0.65c0-.15,0-0.32,0-0.52a1.9,1.9,0,0,1,.52-1.28A2.24,2.24,0,0,1,91.23,1.18Zm-2.14.59a1,1,0,0,0-.31.73c0,0.22,0,.4,0,0.55s0,0.34,0,.56a1,1,0,0,0,.31.72,1.18,1.18,0,0,0,1.48,0,1,1,0,0,0,.3-0.72c0-.11,0-0.3,0-0.56s0-.44,0-0.55a1,1,0,0,0-.3-0.73A1.17,1.17,0,0,0,89.09,1.77Z" transform="translate(-0.55 -0.68)"></path> <path class="cls-1" d="M104,0.93A0.17,0.17,0,0,1,104,.81a0.17,0.17,0,0,1,.13-0.06h0.49a0.29,0.29,0,0,1,.17,0,0.41,0.41,0,0,1,.1.12l1.07,2,1.07-2a0.41,0.41,0,0,1,.1-0.12,0.29,0.29,0,0,1,.17,0h0.49a0.18,0.18,0,0,1,.18.18A0.13,0.13,0,0,1,108,1l-1.6,3-0.07.12a6.94,6.94,0,0,1-.39.67,1.43,1.43,0,0,1-.41.4,1.09,1.09,0,0,1-.6.16h-0.49a0.18,0.18,0,0,1-.18-0.18V4.7a0.18,0.18,0,0,1,.18-0.18h0.37a0.47,0.47,0,0,0,.35-0.15,2.58,2.58,0,0,0,.35-0.51L104,1A0.13,0.13,0,0,1,104,.93Z" transform="translate(-0.55 -0.68)"></path> <polygon class="cls-1" points="7.05 11.66 14.09 22.88 0 22.88 7.05 11.66"></polygon> <polygon class="cls-1" points="7.05 11.66 14.09 22.88 0 22.88 7.05 11.66"></polygon> <g class="cls-2"> <rect class="cls-3" x="2.64" y="10.83" width="11.38" height="14.08" transform="translate(-10.09 25.51) rotate(-90)"></rect> </g> <polygon class="cls-1" points="21.14 11.66 28.19 22.88 14.09 22.88 21.14 11.66"></polygon> <circle class="cls-1" cx="14.16" cy="13.84" r="1.07"></circle> <circle class="cls-1" cx="14.16" cy="13.84" r="1.07"></circle> <polygon class="cls-1" points="10.74 14.58 14.31 18.84 17.3 14.4 14.33 15.83 10.74 14.58"></polygon> <polygon class="cls-1" points="14.1 0.43 21.14 11.66 7.05 11.66 14.1 0.43"></polygon> <polygon class="cls-1" points="10.74 14.58 14.31 18.84 17.3 14.4 14.33 15.83 10.74 14.58"></polygon> <polygon class="cls-1" points="14.1 0.43 21.14 11.66 7.05 11.66 14.1 0.43"></polygon> <path class="cls-1" d="M43.46,22.89a0.52,0.52,0,0,1-.38.16H42.25a0.55,0.55,0,0,1-.54-0.54V11.39l-3.27,2.48a0.51,0.51,0,0,1-.34.12,0.52,0.52,0,0,1-.42-0.2l-0.48-.63a0.56,0.56,0,0,1-.12-0.34,0.5,0.5,0,0,1,.22-0.42l4.32-3.31a1.09,1.09,0,0,1,.65-0.16h0.83a0.55,0.55,0,0,1,.54.54v13A0.52,0.52,0,0,1,43.46,22.89Z" transform="translate(-0.55 -0.68)"></path> <path class="cls-1" d="M59,22.89a0.52,0.52,0,0,1-.16-0.38V15.74L53,22.83a0.52,0.52,0,0,1-.44.22H51.85a0.49,0.49,0,0,1-.37-0.16,0.54,0.54,0,0,1-.15-0.38V13.1a0.55,0.55,0,0,1,.54-0.54h0.75a0.55,0.55,0,0,1,.54.54v6.82L59,12.78a0.71,0.71,0,0,1,.19-0.17,0.53,0.53,0,0,1,.25,0h0.67a0.55,0.55,0,0,1,.54.54v9.4a0.55,0.55,0,0,1-.54.54H59.39A0.52,0.52,0,0,1,59,22.89ZM53.6,8.33a0.36,0.36,0,0,1,.28-0.11h0.65a0.36,0.36,0,0,1,.28.11,0.39,0.39,0,0,1,.1.27,1.29,1.29,0,0,0,.29.87,1.1,1.1,0,0,0,1.59,0,1.29,1.29,0,0,0,.29-0.87,0.39,0.39,0,0,1,.1-0.27,0.36,0.36,0,0,1,.28-0.11h0.65a0.36,0.36,0,0,1,.28.11,0.39,0.39,0,0,1,.1.27,2.68,2.68,0,0,1-.65,1.78,2.63,2.63,0,0,1-3.71,0A2.68,2.68,0,0,1,53.5,8.6,0.39,0.39,0,0,1,53.6,8.33Z" transform="translate(-0.55 -0.68)"></path> <path class="cls-1" d="M79.76,9.57a1,1,0,0,1,.89-0.65h0.77a0.55,0.55,0,0,1,.54.54v13a0.55,0.55,0,0,1-.54.54H80.59A0.55,0.55,0,0,1,80,22.5V12.94L76.9,19a1.49,1.49,0,0,1-.35.48,0.71,0.71,0,0,1-.47.16H75.31a0.71,0.71,0,0,1-.47-0.16A1.48,1.48,0,0,1,74.48,19l-3.15-6.07V22.5a0.55,0.55,0,0,1-.54.54H70a0.55,0.55,0,0,1-.54-0.54v-13A0.55,0.55,0,0,1,70,8.93h0.77a1,1,0,0,1,.89.65l4.07,7.89Z" transform="translate(-0.55 -0.68)"></path> <path class="cls-1" d="M92.63,9.45a4.87,4.87,0,0,1,1.91,2,6.21,6.21,0,0,1,.7,2.77q0,1.21,0,1.8t0,1.79a6.4,6.4,0,0,1-.72,2.77,4.89,4.89,0,0,1-1.9,2,6.38,6.38,0,0,1-5.91,0,4.89,4.89,0,0,1-1.9-2,6.4,6.4,0,0,1-.72-2.77q0-.6,0-1.79t0-1.8a6.21,6.21,0,0,1,.7-2.77,4.86,4.86,0,0,1,1.91-2A6.42,6.42,0,0,1,92.63,9.45Zm-5.57,2a3.9,3.9,0,0,0-1,2.8q0,0.61,0,1.7t0,1.69a3.9,3.9,0,0,0,1,2.81,4,4,0,0,0,5.21,0,3.89,3.89,0,0,0,1-2.81c0-.81,0-1.37,0-1.69s0-.89,0-1.7a3.89,3.89,0,0,0-1-2.8A4,4,0,0,0,87.06,11.49Z" transform="translate(-0.55 -0.68)"></path> <path class="cls-1" d="M107.15,22.24a0.56,0.56,0,0,1,.2.36,0.45,0.45,0,0,1-.44.44h-1.25a1,1,0,0,1-.73-0.3L99.22,17.3V22.5a0.55,0.55,0,0,1-.54.54H97.85a0.55,0.55,0,0,1-.54-0.54v-13a0.55,0.55,0,0,1,.54-0.54h0.83a0.55,0.55,0,0,1,.54.54v4.7l5.39-4.94a1,1,0,0,1,.73-0.3h1.17a0.42,0.42,0,0,1,.31.13,0.43,0.43,0,0,1,.13.31,0.56,0.56,0,0,1-.2.36l-6.48,6Z" transform="translate(-0.55 -0.68)"></path> <circle id="_Path_" data-name="&lt;Path&gt;" class="cls-1" cx="46.59" cy="15.44" r="1.15"></circle> </svg> 