<?xml version="1.0" encoding="UTF-8"?> <svg xmlns="http://www.w3.org/2000/svg" xmlns:xlink="http://www.w3.org/1999/xlink" id="Layer_1" data-name="Layer 1" viewBox="0 0 45.16 45.75"> <defs> <style>.cls-1{fill:#5c5455;}.cls-2{fill:#91c32b;}.cls-3{fill:#552b8a;}.cls-4{fill:#2d2d40;}.cls-5,.cls-6{opacity:0.07;}.cls-5{fill:url(#Безымянный_градиент_17);}.cls-6{fill:url(#Безымянный_градиент_17-2);}</style> <linearGradient id="Безымянный_градиент_17" x1="26.26" y1="10.85" x2="17.3" y2="10.85" gradientTransform="translate(28.45 -6.75) rotate(90)" gradientUnits="userSpaceOnUse"> <stop offset="0" stop-color="#fff"></stop> <stop offset="0.18" stop-color="#fff" stop-opacity="0.99"></stop> <stop offset="0.31" stop-color="#fff" stop-opacity="0.95"></stop> <stop offset="0.43" stop-color="#fff" stop-opacity="0.89"></stop> <stop offset="0.54" stop-color="#fff" stop-opacity="0.8"></stop> <stop offset="0.64" stop-color="#fff" stop-opacity="0.69"></stop> <stop offset="0.74" stop-color="#fff" stop-opacity="0.55"></stop> <stop offset="0.83" stop-color="#fff" stop-opacity="0.38"></stop> <stop offset="0.92" stop-color="#fff" stop-opacity="0.19"></stop> <stop offset="1" stop-color="#fff" stop-opacity="0"></stop> </linearGradient> <linearGradient id="Безымянный_градиент_17-2" x1="26.63" y1="19.82" x2="16.73" y2="19.82" gradientTransform="translate(36.88 2.75) rotate(90)" xlink:href="#Безымянный_градиент_17"></linearGradient> </defs> <title>logo 1 mok artboard</title> <polygon class="cls-1" points="16.75 15.41 22.62 24.36 10.88 24.36 16.75 15.41"></polygon> <polygon class="cls-2" points="28.5 15.41 34.37 24.36 22.62 24.36 28.5 15.41"></polygon> <polygon class="cls-3" points="22.62 6.46 28.5 15.41 16.75 15.41 22.62 6.46"></polygon> <polygon class="cls-2" points="19.83 17.74 22.81 21.14 25.3 17.59 22.82 18.74 19.83 17.74"></polygon> <path class="cls-4" d="M11.79,28.17a0.06,0.06,0,0,1,0,0V28.3a0.06,0.06,0,0,1,0,0l0,0H10.9v1.41a0.06,0.06,0,0,1,0,0l0,0h-0.1l0,0a0.06,0.06,0,0,1,0,0V28.21a0.06,0.06,0,0,1,0,0l0,0h1Z"></path> <path class="cls-4" d="M17.15,28.88a0.46,0.46,0,0,1,.18.18,0.57,0.57,0,0,1,0,.52,0.46,0.46,0,0,1-.18.18,0.58,0.58,0,0,1-.29.07h-0.7l0,0a0.06,0.06,0,0,1,0,0V28.21a0.06,0.06,0,0,1,0,0l0,0h1.05l0,0a0.06,0.06,0,0,1,0,0V28.3a0.06,0.06,0,0,1,0,0l0,0H16.34v0.45h0.53A0.58,0.58,0,0,1,17.15,28.88ZM16.34,29v0.59h0.49a0.34,0.34,0,0,0,.25-0.08,0.3,0.3,0,0,0,0-.42A0.34,0.34,0,0,0,16.83,29H16.34Z"></path> <path class="cls-4" d="M23.1,28.17a0.06,0.06,0,0,1,0,0v1.56a0.06,0.06,0,0,1,0,0l0,0H23l0,0a0.06,0.06,0,0,1,0,0V28.37H22v1.41a0.06,0.06,0,0,1,0,0l0,0h-0.1l0,0a0.06,0.06,0,0,1,0,0V28.21a0.06,0.06,0,0,1,0,0l0,0h1.23Z"></path> <path class="cls-4" d="M28.59,28.21a0.6,0.6,0,0,1,.24.24,0.72,0.72,0,0,1,.09.33c0,0.1,0,.17,0,0.21s0,0.12,0,.21a0.74,0.74,0,0,1-.09.33,0.6,0.6,0,0,1-.24.24,0.83,0.83,0,0,1-.74,0,0.6,0.6,0,0,1-.24-0.24,0.74,0.74,0,0,1-.09-0.33s0-.12,0-0.21,0-.17,0-0.21a0.72,0.72,0,0,1,.09-0.33,0.59,0.59,0,0,1,.24-0.24A0.83,0.83,0,0,1,28.59,28.21Zm-0.7.24a0.45,0.45,0,0,0-.13.34s0,0.12,0,.2,0,0.15,0,.2a0.45,0.45,0,0,0,.13.34,0.52,0.52,0,0,0,.65,0,0.46,0.46,0,0,0,.13-0.34c0-.1,0-0.16,0-0.2s0-.11,0-0.2a0.46,0.46,0,0,0-.13-0.34A0.52,0.52,0,0,0,27.9,28.45Z"></path> <path class="cls-4" d="M33.14,28.2a0.05,0.05,0,0,1,0,0l0,0H33.3l0.07,0,0,0L33.86,29l0.46-.84,0,0,0.07,0h0.11l0,0a0.05,0.05,0,0,1,0,0v0L34,29.35l-0.16.26a0.67,0.67,0,0,1-.16.16,0.36,0.36,0,0,1-.22.07H33.3l0,0a0.06,0.06,0,0,1,0,0V29.69a0.06,0.06,0,0,1,0,0l0,0h0.11a0.18,0.18,0,0,0,.12,0l0.09-.1,0.11-.18-0.57-1.05A0.07,0.07,0,0,1,33.14,28.2Z"></path> <path class="cls-4" d="M12.43,36.17a0.18,0.18,0,0,1-.13.05H12a0.18,0.18,0,0,1-.13-0.05,0.16,0.16,0,0,1-.05-0.12V32.52l-1.09.79a0.19,0.19,0,0,1-.25,0l-0.16-.2a0.17,0.17,0,0,1,0-.11,0.16,0.16,0,0,1,.07-0.13l1.44-1.05A0.38,0.38,0,0,1,12,31.73H12.3a0.18,0.18,0,0,1,.13.05,0.16,0.16,0,0,1,.05.12v4.15A0.16,0.16,0,0,1,12.43,36.17Z"></path> <path class="cls-4" d="M13.49,34.53a0.16,0.16,0,0,1-.05-0.12V34.2a0.16,0.16,0,0,1,.05-0.12A0.18,0.18,0,0,1,13.62,34h1.12a0.18,0.18,0,0,1,.13.05,0.16,0.16,0,0,1,.05.12V34.4a0.16,0.16,0,0,1-.05.12,0.18,0.18,0,0,1-.13.05H13.62A0.18,0.18,0,0,1,13.49,34.53Z"></path> <path class="cls-4" d="M18.41,36.17a0.16,0.16,0,0,1-.05-0.12V33.9l-2,2.25a0.18,0.18,0,0,1-.15.07H16a0.17,0.17,0,0,1-.17-0.17v-3a0.16,0.16,0,0,1,.05-0.12A0.18,0.18,0,0,1,16,32.89h0.25a0.18,0.18,0,0,1,.13.05,0.16,0.16,0,0,1,.05.12v2.17l2-2.27,0.06-.05,0.08,0h0.22a0.18,0.18,0,0,1,.13.05,0.16,0.16,0,0,1,.05.12v3a0.16,0.16,0,0,1-.05.12,0.18,0.18,0,0,1-.13.05H18.54A0.18,0.18,0,0,1,18.41,36.17Zm-1.8-4.63a0.12,0.12,0,0,1,.09,0h0.21a0.12,0.12,0,0,1,.09,0,0.12,0.12,0,0,1,0,.09,0.4,0.4,0,0,0,.1.28,0.38,0.38,0,0,0,.53,0,0.4,0.4,0,0,0,.1-0.28,0.12,0.12,0,0,1,0-.09,0.12,0.12,0,0,1,.09,0h0.21a0.12,0.12,0,0,1,.09,0,0.12,0.12,0,0,1,0,.09,0.83,0.83,0,0,1-.21.56,0.9,0.9,0,0,1-1.23,0,0.83,0.83,0,0,1-.21-0.56A0.12,0.12,0,0,1,16.61,31.55Z"></path> <path class="cls-4" d="M25.12,31.94a0.33,0.33,0,0,1,.3-0.21h0.25a0.18,0.18,0,0,1,.13.05,0.16,0.16,0,0,1,.05.12v4.15a0.16,0.16,0,0,1-.05.12,0.18,0.18,0,0,1-.13.05H25.4a0.18,0.18,0,0,1-.13-0.05,0.16,0.16,0,0,1-.05-0.12V33l-1,1.93a0.48,0.48,0,0,1-.12.15,0.24,0.24,0,0,1-.16.05H23.64a0.24,0.24,0,0,1-.16-0.05,0.47,0.47,0,0,1-.12-0.15l-1-1.93v3a0.16,0.16,0,0,1-.05.12,0.18,0.18,0,0,1-.13.05H21.86a0.18,0.18,0,0,1-.13-0.05,0.16,0.16,0,0,1-.05-0.12V31.91a0.16,0.16,0,0,1,.05-0.12,0.18,0.18,0,0,1,.13-0.05h0.25a0.33,0.33,0,0,1,.3.21l1.35,2.51Z"></path> <path class="cls-4" d="M29.67,31.9a1.58,1.58,0,0,1,.63.63,1.91,1.91,0,0,1,.23.88q0,0.39,0,.57t0,0.57a2,2,0,0,1-.24.88,1.59,1.59,0,0,1-.63.63,2.2,2.2,0,0,1-2,0,1.59,1.59,0,0,1-.63-0.63,2,2,0,0,1-.24-0.88q0-.19,0-0.57t0-.57a1.91,1.91,0,0,1,.23-0.88,1.58,1.58,0,0,1,.63-0.63A2.22,2.22,0,0,1,29.67,31.9Zm-1.85.65a1.21,1.21,0,0,0-.35.89q0,0.19,0,.54t0,0.54a1.21,1.21,0,0,0,.35.89,1.39,1.39,0,0,0,1.73,0,1.21,1.21,0,0,0,.35-0.89c0-.26,0-0.44,0-0.54s0-.28,0-0.54a1.21,1.21,0,0,0-.35-0.89A1.39,1.39,0,0,0,27.82,32.55Z"></path> <path class="cls-4" d="M34.78,36a0.18,0.18,0,0,1,.07.12,0.13,0.13,0,0,1,0,.1,0.15,0.15,0,0,1-.1,0H34.29a0.34,0.34,0,0,1-.24-0.1l-1.9-1.73v1.66a0.16,0.16,0,0,1-.05.12,0.18,0.18,0,0,1-.13.05H31.69a0.18,0.18,0,0,1-.13-0.05,0.16,0.16,0,0,1-.05-0.12V31.91a0.16,0.16,0,0,1,.05-0.12,0.18,0.18,0,0,1,.13-0.05H32a0.18,0.18,0,0,1,.13.05,0.16,0.16,0,0,1,.05.12V33.4l1.79-1.57a0.34,0.34,0,0,1,.24-0.1h0.39a0.14,0.14,0,0,1,.1,0,0.13,0.13,0,0,1,0,.1,0.18,0.18,0,0,1-.07.12L32.5,33.88Z"></path> <rect class="cls-5" x="13.03" y="5.8" width="9.14" height="10.11" transform="translate(6.75 28.45) rotate(-90)"></rect> <ellipse class="cls-3" cx="22.68" cy="17.15" rx="0.89" ry="0.85"></ellipse> <rect class="cls-6" x="12.53" y="14.23" width="9.07" height="11.16" transform="translate(-2.75 36.88) rotate(-90)"></rect> </svg> 